PathFileType	4	(X/Y/Z)	/Users/itak/Documents/Research/Walk-IL/dataset/trc/00103_00007.trc
DataRate	CameraRate	NumFrames	NumMarkers	Units	OrigDataRate	OrigDataStartFrame	OrigNumFrames
100.000000	100.000000	4	53	mm	100.000000	0	563
Frame#	Time	RPSI			LPSI			L3			STRN			T10			C7			CLAV			RBAK			LBAK			LSHO			LUPA			LAEL			LAOL			LWTS			LWPS			LFRA			LIFD			LHPS			LHTS			RSHO			RUPA			RAEL			RAOL			RWTS			RWPS			RFRA			RIFD			RHTS			RHPS			RBHD			LFHD			RFHD			LBHD			LHIP			RHIP			RASI			LASI			LKNE			LTHI			LANK			LTIP			LTOE			LMT1			LMT5			LHEE			RKNE			RTHI			RANK			RTIP			RTOE			RMT1			RMT5			RHEE			
		X1	Y1	Z1	X2	Y2	Z2	X3	Y3	Z3	X4	Y4	Z4	X5	Y5	Z5	X6	Y6	Z6	X7	Y7	Z7	X8	Y8	Z8	X9	Y9	Z9	X10	Y10	Z10	X11	Y11	Z11	X12	Y12	Z12	X13	Y13	Z13	X14	Y14	Z14	X15	Y15	Z15	X16	Y16	Z16	X17	Y17	Z17	X18	Y18	Z18	X19	Y19	Z19	X20	Y20	Z20	X21	Y21	Z21	X22	Y22	Z22	X23	Y23	Z23	X24	Y24	Z24	X25	Y25	Z25	X26	Y26	Z26	X27	Y27	Z27	X28	Y28	Z28	X29	Y29	Z29	X30	Y30	Z30	X31	Y31	Z31	X32	Y32	Z32	X33	Y33	Z33	X34	Y34	Z34	X35	Y35	Z35	X36	Y36	Z36	X37	Y37	Z37	X38	Y38	Z38	X39	Y39	Z39	X40	Y40	Z40	X41	Y41	Z41	X42	Y42	Z42	X43	Y43	Z43	X44	Y44	Z44	X45	Y45	Z45	X46	Y46	Z46	X47	Y47	Z47	X48	Y48	Z48	X49	Y49	Z49	X50	Y50	Z50	X51	Y51	Z51	X52	Y52	Z52	X53	Y53	Z53	

1	0	-1913.877075195312	1127.07470703125	-280.1667175292969	-1912.067626953125	1127.861450195312	-414.3489379882812	-1919.933959960938	1159.803588867188	-350.220458984375	-1704.768188476562	1361.789672851562	-349.6182250976562	-1960.313598632812	1309.059326171875	-352.3441772460938	-1926.391235351562	1601.2138671875	-370.6457824707031	-1740.181030273438	1497.347534179688	-355.6493835449219	-1979.950805664062	1416.68896484375	-283.4526977539062	-1930.929443359375	1580.76708984375	-471.9901733398438	-1842.344116210938	1568.388549804688	-537.6268920898438	-1860.040161132812	1435.784912109375	-607.3966674804688	-1842.473999023438	1215.6806640625	-625.6754760742188	-1911.241455078125	1204.261840820312	-572.410888671875	-1751.812255859375	955.8988647460938	-575.5610961914062	-1831.997802734375	932.7459716796875	-607.588134765625	-1827.853515625	1099.73779296875	-627.7916259765625	-1750.0078125	762.480712890625	-550.0731811523438	-1805.485595703125	857.5037231445312	-606.212158203125	-1738.593383789062	865.3734130859375	-584.6827392578125	-1878.100708007812	1584.905151367188	-187.7573852539062	-1897.181762695312	1512.826904296875	-123.9044723510742	-1908.377197265625	1218.647705078125	-98.81745147705078	-1912.742309570312	1216.244750976562	-196.2325134277344	-1758.814697265625	977.5924682617188	-108.2518463134766	-1835.416259765625	959.6236572265625	-78.19828796386719	-1884.36083984375	1145.571655273438	-82.11622619628906	-1733.028442382812	782.8865356445312	-125.1434555053711	-1728.83349609375	869.1383666992188	-101.8995819091797	-1797.502685546875	860.6973876953125	-73.52616119384766	-1897.526977539062	1768.904907226562	-286.6284790039062	-1743.7978515625	1848.328735351562	-425.0223999023438	-1739.563354492188	1853.030517578125	-295.3252868652344	-1908.294921875	1767.690063476562	-421.1505126953125	-1818.727416992188	1037.59814453125	-519.6392822265625	-1789.977172851562	1031.14501953125	-161.4207153320312	-1706.343017578125	1104.846801757812	-212.5775451660156	-1710.734008789062	1103.815063476562	-479.7658386230469	-1800.97265625	535.4532470703125	-482.2264404296875	-1819.64794921875	682.1448974609375	-512.9183959960938	-1914.48291015625	36.90989303588867	-467.3870849609375	-1900.740966796875	290.0208129882812	-506.0894470214844	-1685.06396484375	37.12161636352539	-404.0187377929688	-1766.62548828125	40.23473358154297	-372.2421264648438	-1788.486083984375	32.9753532409668	-490.7879333496094	-1984.165893554688	36.81074905395508	-405.8816528320312	-1810.901733398438	538.466552734375	-191.8266143798828	-1776.740600585938	817.710693359375	-165.9236450195312	-1914.470581054688	28.79723167419434	-208.6879119873047	-1839.317749023438	406.205810546875	-180.8126525878906	-1681.96630859375	40.32830047607422	-262.8013916015625	-1744.305053710938	30.84666633605957	-303.387939453125	-1780.688720703125	37.33737182617188	-187.2515106201172	-1971.9912109375	32.44221115112305	-257.691162109375	
2	0.01	-1913.812744140625	1127.093872070312	-280.1799926757812	-1911.980712890625	1127.871215820312	-414.3304748535156	-1919.869506835938	1159.821655273438	-350.2109375	-1704.783813476562	1361.7880859375	-349.6320495605469	-1960.245361328125	1309.005493164062	-352.2751159667969	-1926.438720703125	1601.213745117188	-370.5196533203125	-1740.213012695312	1497.344848632812	-355.6114196777344	-1979.884399414062	1416.642700195312	-283.3894958496094	-1930.988403320312	1580.798095703125	-471.887939453125	-1842.405883789062	1568.477416992188	-537.5496826171875	-1860.050415039062	1435.904174804688	-607.3944702148438	-1842.504272460938	1215.802734375	-625.8130493164062	-1911.314575195312	1204.372802734375	-572.6317749023438	-1751.98291015625	955.9392700195312	-575.7208862304688	-1832.146484375	932.8682861328125	-607.9300537109375	-1827.942626953125	1099.870971679688	-628.0033569335938	-1750.260986328125	762.4664306640625	-550.3386840820312	-1805.727294921875	857.644775390625	-606.5614013671875	-1738.935424804688	865.4091186523438	-584.943115234375	-1878.098266601562	1584.855712890625	-187.6745758056641	-1897.133911132812	1512.766845703125	-123.7929992675781	-1908.519653320312	1218.593994140625	-98.83709716796875	-1912.706298828125	1216.18994140625	-196.2974243164062	-1758.475830078125	977.8682861328125	-108.0437088012695	-1835.074829101562	959.6840209960938	-78.2510986328125	-1884.398071289062	1145.519775390625	-82.13067626953125	-1732.086669921875	783.2811279296875	-124.9200439453125	-1728.22265625	869.3812866210938	-101.6642379760742	-1796.9111328125	860.8001098632812	-73.50847625732422	-1897.587524414062	1768.902221679688	-286.4932250976562	-1743.694580078125	1848.314697265625	-424.7727355957031	-1739.521240234375	1852.912963867188	-295.0670471191406	-1908.256713867188	1767.757690429688	-420.9991149902344	-1818.722900390625	1037.60791015625	-519.6536254882812	-1789.93212890625	1031.133178710938	-161.4424285888672	-1706.279418945312	1104.812744140625	-212.6247406005859	-1710.731201171875	1103.835693359375	-479.7980346679688	-1800.979125976562	535.4521484375	-482.2368469238281	-1819.649658203125	682.14501953125	-512.927001953125	-1914.478759765625	36.91469955444336	-467.3846740722656	-1900.835571289062	289.9883728027344	-506.0975036621094	-1685.062744140625	37.12307357788086	-404.0207214355469	-1766.624877929688	40.23216247558594	-372.2430419921875	-1788.491943359375	32.97139358520508	-490.7904968261719	-1984.158813476562	36.82711791992188	-405.8748168945312	-1810.989013671875	538.4695434570312	-191.8384552001953	-1776.690307617188	817.7435913085938	-165.8925018310547	-1914.474609375	28.80056762695312	-208.6875152587891	-1839.380859375	406.2119445800781	-180.8319091796875	-1681.964111328125	40.32737731933594	-262.796875	-1744.301879882812	30.84644889831543	-303.3872680664062	-1780.699951171875	37.32541656494141	-187.2396545410156	-1971.989990234375	32.44116592407227	-257.6847839355469	
3	0.02	-1913.734375	1127.114624023438	-280.1949157714844	-1911.881103515625	1127.882568359375	-414.3123474121094	-1919.7919921875	1159.843627929688	-350.2003784179688	-1704.801147460938	1361.78466796875	-349.6468505859375	-1960.164672851562	1308.92919921875	-352.1864318847656	-1926.497436523438	1601.20849609375	-370.3617248535156	-1740.252563476562	1497.336303710938	-355.5645446777344	-1979.809814453125	1416.586181640625	-283.3131408691406	-1931.071533203125	1580.837524414062	-471.7586364746094	-1842.479858398438	1568.576904296875	-537.4515991210938	-1860.077270507812	1436.045288085938	-607.3856811523438	-1842.557006835938	1215.950439453125	-625.9788208007812	-1911.416137695312	1204.50341796875	-572.887451171875	-1752.180297851562	955.9991455078125	-575.9154663085938	-1832.310180664062	933.0135498046875	-608.3260498046875	-1828.05712890625	1100.02978515625	-628.2537841796875	-1750.567138671875	762.4742431640625	-550.6697387695312	-1805.967895507812	857.7371826171875	-606.9559936523438	-1739.318969726562	865.4782104492188	-585.2574462890625	-1878.093994140625	1584.786743164062	-187.56640625	-1897.086181640625	1512.686645507812	-123.662467956543	-1908.680419921875	1218.510009765625	-98.85822296142578	-1912.66552734375	1216.114379882812	-196.3699798583984	-1758.029174804688	978.1951904296875	-107.8028564453125	-1834.643432617188	959.7498168945312	-78.32084655761719	-1884.433349609375	1145.443725585938	-82.15089416503906	-1730.9052734375	783.7525024414062	-124.6759185791016	-1727.445556640625	869.6962890625	-101.3986053466797	-1796.195190429688	860.9220581054688	-73.46726226806641	-1897.662231445312	1768.90185546875	-286.3244323730469	-1743.56591796875	1848.288452148438	-424.4476623535156	-1739.469970703125	1852.765380859375	-294.7557373046875	-1908.212036132812	1767.83935546875	-420.8182678222656	-1818.715698242188	1037.61962890625	-519.6721801757812	-1789.869506835938	1031.116943359375	-161.4700622558594	-1706.201171875	1104.771606445312	-212.6817321777344	-1710.7236328125	1103.865600585938	-479.8358154296875	-1800.987670898438	535.4520874023438	-482.253173828125	-1819.653198242188	682.1447143554688	-512.9412841796875	-1914.474365234375	36.92001724243164	-467.3821105957031	-1900.96875	289.9377746582031	-506.1056823730469	-1685.060546875	37.12407684326172	-404.0226745605469	-1766.624877929688	40.22969818115234	-372.2453918457031	-1788.498168945312	32.96499633789062	-490.7933959960938	-1984.152465820312	36.84503173828125	-405.8671264648438	-1811.085815429688	538.4735717773438	-191.8537750244141	-1776.66943359375	817.77783203125	-165.8636322021484	-1914.478393554688	28.8033618927002	-208.6867370605469	-1839.454467773438	406.2200317382812	-180.8552703857422	-1681.96044921875	40.32534408569336	-262.7929077148438	-1744.298706054688	30.84605407714844	-303.3872680664062	-1780.702514648438	37.31849670410156	-187.2321929931641	-1971.9892578125	32.43972778320312	-257.6807556152344	
4	0.03	-1913.646240234375	1127.134521484375	-280.2099609375	-1911.77734375	1127.894653320312	-414.2975158691406	-1919.706909179688	1159.86767578125	-350.1900634765625	-1704.81884765625	1361.779052734375	-349.6608581542969	-1960.078979492188	1308.83154296875	-352.0822448730469	-1926.564453125	1601.195556640625	-370.1795654296875	-1740.297607421875	1497.3203125	-355.5111999511719	-1979.734985351562	1416.522338867188	-283.2281188964844	-1931.1787109375	1580.883422851562	-471.6074523925781	-1842.5625	1568.677978515625	-537.336669921875	-1860.126586914062	1436.19775390625	-607.3675537109375	-1842.637084960938	1216.1142578125	-626.1610717773438	-1911.546630859375	1204.643798828125	-573.1563720703125	-1752.384643554688	956.080078125	-576.1339111328125	-1832.470703125	933.1717529296875	-608.7421875	-1828.192138671875	1100.203369140625	-628.5241088867188	-1750.898803710938	762.515869140625	-551.0497436523438	-1806.1826171875	857.77783203125	-607.36572265625	-1739.700805664062	865.586669921875	-585.6047973632812	-1878.088623046875	1584.698852539062	-187.4363555908203	-1897.045654296875	1512.586791992188	-123.5214004516602	-1908.841674804688	1218.391723632812	-98.87882232666016	-1912.6220703125	1216.018310546875	-196.4430389404297	-1757.48486328125	978.5470581054688	-107.552848815918	-1834.134887695312	959.811767578125	-78.40503692626953	-1884.457763671875	1145.341674804688	-82.17733001708984	-1729.544189453125	784.262939453125	-124.4390640258789	-1726.53466796875	870.0702514648438	-101.1299285888672	-1795.398193359375	861.0536499023438	-73.39987945556641	-1897.747192382812	1768.9052734375	-286.1305236816406	-1743.421875	1848.248413085938	-424.0606689453125	-1739.413940429688	1852.594604492188	-294.4084777832031	-1908.1640625	1767.9306640625	-420.6189880371094	-1818.705200195312	1037.632568359375	-519.6947021484375	-1789.789916992188	1031.096801757812	-161.5027160644531	-1706.112060546875	1104.725830078125	-212.7453002929688	-1710.712646484375	1103.903686523438	-479.8775024414062	-1800.997436523438	535.4532470703125	-482.2764282226562	-1819.658569335938	682.1436157226562	-512.9620361328125	-1914.470336914062	36.92539215087891	-467.379638671875	-1901.134765625	289.8705139160156	-506.1133117675781	-1685.05810546875	37.12485504150391	-404.0253601074219	-1766.625854492188	40.22751617431641	-372.2496337890625	-1788.503784179688	32.95680618286133	-490.7962646484375	-1984.147583007812	36.86238098144531	-405.8592529296875	-1811.182250976562	538.4783325195312	-191.8720703125	-1776.695190429688	817.8101196289062	-165.8455810546875	-1914.4814453125	28.80540657043457	-208.6855926513672	-1839.531982421875	406.2296447753906	-180.8804626464844	-1681.954956054688	40.32200622558594	-262.7901916503906	-1744.296142578125	30.84529113769531	-303.38818359375	-1780.695068359375	37.31796646118164	-187.2303924560547	-1971.988891601562	32.43830490112305	-257.6799926757812	
